<?xml version="1.0" encoding="UTF-8"?>
<!DOCTYPE svg PUBLIC "-//W3C//DTD SVG 1.1//EN" "http://www.w3.org/Graphics/SVG/1.1/DTD/svg11.dtd">
<!-- Creator: CorelDRAW 2018 (64-Bit) -->
<svg xmlns="http://www.w3.org/2000/svg" xml:space="preserve" width="400px" height="400px" version="1.1" style="shape-rendering:geometricPrecision; text-rendering:geometricPrecision; image-rendering:optimizeQuality; fill-rule:evenodd; clip-rule:evenodd"
viewBox="0 0 54151 54151"
 xmlns:xlink="http://www.w3.org/1999/xlink">
 <defs>
  <style type="text/css">
   <![CDATA[
    .fil0 {fill:#283593}
    .fil1 {fill:white}
    .fil2 {fill:#283593;fill-rule:nonzero}
   ]]>
  </style>
 </defs>
 <g id="Layer_x0020_1">
  <metadata id="CorelCorpID_0Corel-Layer"/>
  <path class="fil0" d="M27076 54151c-14954,0 -27076,-12122 -27076,-27075 0,-14954 12122,-27076 27076,-27076 14953,0 27075,12122 27075,27076 0,14953 -12122,27075 -27075,27075z"/>
  <circle class="fil1" cx="27076" cy="27076" r="26274"/>
  <circle class="fil0" cx="27076" cy="27076" r="18935"/>
  <path class="fil1" d="M37688 27971l-902 262 -4834 -1585c-27,87 -56,173 -88,258l6503 2282 654 891 -1093 169 -6212 -2985c-42,91 -87,182 -134,271l6878 3479 687 -70c-44,117 -87,235 -128,353l607 307 626 1141 -1301 28 -325 -213c-705,2589 -884,5379 -876,8243l-9749 0 0 -10634c-254,48 -513,77 -779,86l498 9002 -675 1113 -674 -1113 497 -9002c-264,-9 -524,-38 -778,-86l0 10634 -9750 0c9,-2864 -170,-5654 -875,-8243l-325 213 -1301 -28 626 -1141 608 -307c-42,-118 -85,-236 -129,-353l687 70 6879 -3480c-48,-88 -93,-179 -135,-271l-6212 2986 -1093 -169 654 -891 6503 -2282c-31,-85 -61,-171 -88,-258l-4834 1586 -902 -263 650 -679 4979 -1044c-19,-88 -37,-177 -52,-267l-6773 1275 -1013 -445 863 -692 6873 -521c-9,-100 -16,-201 -19,-302l-9003 498 -1112 -675 1112 -675 9003 498c3,-101 10,-202 19,-302l-6873 -521 -863 -692 1013 -445 6773 1275c15,-90 33,-179 52,-267l-4979 -1044 -650 -679 902 -263 4834 1586c27,-87 57,-173 88,-258l-6503 -2282 -654 -892 1093 -167 6212 2984c42,-91 87,-182 135,-270l-8045 -4070 -626 -1141 1301 -28 7547 4932c53,-85 109,-169 168,-251l-5692 -3888 -401 -1031 1099 121 5229 4492c58,-70 118,-139 180,-206l-3792 -3394 -223 -913 913 224 3394 3791c66,-62 135,-122 205,-180l-4492 -5228 -121 -1100 1031 401 3888 5692c82,-58 166,-114 252,-168l-4932 -7547 28 -1301 1140 626 4070 8045c89,-47 179,-92 271,-134l-2985 -6213 168 -1093 892 655 2282 6503c85,-32 171,-61 258,-88l-1586 -4834 263 -903 679 651 1043 4979c89,-20 178,-38 268,-53l-1276 -6773 446 -1013 692 863 521 6873c100,-9 200,-15 301,-19l-497 -9002 674 -1113 675 1113 -498 9002c102,4 202,10 302,19l521 -6873 692 -863 446 1013 -1276 6773c90,15 179,33 268,53l1043 -4979 679 -651 263 903 -1586 4834c87,27 173,56 258,88l2282 -6503 892 -655 168 1093 -2985 6213c92,42 182,87 271,134l4070 -8045 1141 -626 28 1301 -4933 7547c86,54 170,110 252,168l3888 -5692 1031 -401 -121 1100 -4492 5228c70,58 139,118 205,180l3394 -3791 914 -224 -224 913 -3791 3394c61,67 121,136 179,206l5229 -4492 1099 -121 -401 1031 -5692 3888c59,82 115,166 168,251l7547 -4932 1301 28 -626 1141 -8044 4070c47,88 92,179 134,270l6212 -2984 1093 167 -654 892 -6503 2282c31,85 61,171 88,258l4834 -1586 902 263 -650 679 -4979 1044c19,88 37,177 52,267l6774 -1275 1012 445 -863 692 -6873 521c9,100 16,201 19,302l9003 -498 1112 675 -1112 675 -9002 -498c-4,101 -10,202 -20,302l6873 521 863 692 -1012 445 -6774 -1275c-15,90 -32,179 -52,267l4979 1044 650 679zm-12191 2048c-729,-230 -1387,-618 -1935,-1124l-3394 3791 -913 224 223 -913 3792 -3394c-62,-67 -122,-135 -180,-205l-5229 4491 -1099 121 401 -1031 5692 -3888c-59,-82 -115,-165 -168,-251l-6528 4266c330,1534 516,3082 643,4610 1011,0 1985,0 2997,0 0,218 0,399 0,617 -946,431 -1081,2806 -68,2865l2208 0c1785,-2770 1075,-6324 -1059,-7950l4617 -2229zm12435 2087l-6528 -4266c-53,86 -109,169 -168,251l5692 3888 401 1031 -1099 -121 -5229 -4491c-58,70 -118,138 -179,205l3791 3394 224 913 -914 -224 -3394 -3791c-548,506 -1206,894 -1935,1124l4617 2229c-2134,1626 -2844,5180 -1059,7950l2208 0c1013,-59 878,-2434 -68,-2865 0,-218 0,-399 0,-617 1012,0 1986,0 2997,0 127,-1528 313,-3077 643,-4610z"/>
  <path id="path5631" class="fil0" d="M24857 22810c-127,-98 86,-431 483,-754 336,-274 821,-565 1065,-639l107 -32 -8 73c-28,256 -199,519 -518,797 -427,372 -1001,654 -1129,555l0 0zm-315 910c-21,-4 -99,-28 -172,-52l-134 -46 9 -225 9 -225 90 -50c113,-64 161,-70 344,-43 194,28 270,89 263,211 -14,255 -218,469 -409,430l0 0zm2588 -146c-156,-58 -229,-116 -312,-246 -89,-139 -92,-157 -58,-301 26,-109 29,-111 144,-126l117 -15 68 117c39,69 83,115 105,112 24,-3 68,-90 113,-219 85,-242 89,-243 338,-153l125 45 6 -70c4,-39 12,-112 17,-163l11 -93 154 18 154 18 29 275 29 276 -96 87 -95 88 -138 -25c-76,-13 -144,-23 -152,-23 -8,2 -35,66 -59,145 -24,78 -71,165 -104,193 -93,80 -271,107 -396,60l0 0zm-3556 622c-63,-16 -140,-54 -171,-86 -49,-51 -54,-72 -42,-166 14,-103 127,-300 205,-355 41,-30 386,2 449,41 26,17 46,73 58,160 41,321 -163,487 -499,406l0 0zm5572 -2222c-17,-75 -23,-77 -130,-65 -108,13 -111,16 -109,95l3 82 127 -17 127 -17 -18 -78 0 0zm-899 1765c-17,-131 1,-349 36,-451 15,-43 96,-173 179,-288 84,-115 177,-246 207,-292 30,-45 92,-121 137,-168l83 -87 -113 -104c-166,-153 -201,-304 -116,-501 53,-120 167,-205 298,-222 206,-27 310,87 349,383l22 176 98 24c218,56 214,46 66,137 -208,128 -304,244 -453,548 -124,255 -160,304 -419,569 -156,160 -301,310 -322,334 -36,40 -40,36 -52,-58l0 0zm1371 3329c-86,-208 -77,-293 54,-478 29,-42 47,-81 40,-87 -8,-6 -82,11 -165,37 -83,26 -158,42 -167,35 -44,-34 1,-211 77,-306 96,-119 162,-145 453,-182 332,-42 338,-31 155,306 -214,394 -198,433 97,240 231,-151 269,-144 275,47 5,136 -78,322 -171,386 -35,24 -162,52 -330,74l-274 37 -44 -108 0 -1zm61 -3401c19,-20 39,-62 44,-94 8,-47 -5,-61 -77,-80 -74,-21 -96,-18 -150,19 -76,52 -76,67 2,144 65,63 126,67 181,11l0 0zm-4669 3137c-55,-48 -80,-198 -58,-362l15 -115 304 -40c343,-45 313,-19 313,-268 -1,-205 95,-347 278,-414 105,-39 204,-12 280,76 78,91 97,181 73,339 -21,132 -31,149 -111,186 -48,22 -183,58 -300,80l-213 41 -5 91c-7,128 -45,220 -125,307 -59,65 -91,78 -236,97 -131,17 -178,13 -215,-18l0 0zm284 650c417,-169 1100,-839 1287,-1264 120,-273 184,-708 126,-856 -32,-80 -94,-72 -353,47 -229,105 -469,137 -623,81 -117,-43 -279,-174 -418,-339 -63,-75 -127,-134 -142,-132 -15,2 -74,49 -131,105 -171,170 -263,387 -377,893 -88,387 -207,745 -302,910l-75 131 69 98c143,202 334,334 551,381 126,27 217,14 388,-55l0 0zm3499 652c-312,-42 -573,-198 -975,-583 -263,-252 -347,-383 -557,-874 -66,-152 -127,-276 -137,-275 -38,4 -178,213 -384,573 -328,572 -511,798 -800,995 -407,276 -1003,389 -1386,262 -329,-109 -503,-390 -613,-990l-66 -360 -302 -268c-374,-333 -377,-338 -468,-1037 -58,-443 -61,-515 -32,-677 35,-199 150,-447 179,-387 10,19 130,372 268,783l251 749 179 -16c163,-15 182,-22 208,-78 16,-34 72,-271 124,-527 51,-256 118,-539 147,-629 109,-335 318,-580 618,-725 79,-39 148,-74 152,-77 4,-4 -17,-57 -47,-117 -80,-163 -92,-322 -37,-482 72,-209 208,-343 612,-606 450,-292 769,-508 1344,-906 378,-262 767,-485 867,-498 67,-9 34,317 -49,485 -29,60 -144,190 -270,305 -176,160 -256,215 -393,268 -569,223 -1501,885 -1808,1284 -70,90 -125,183 -122,206 4,25 47,51 110,67l104 26 31 240 32 240 316 101c174,56 321,101 328,100 31,-4 -12,-122 -104,-285 -90,-160 -102,-198 -108,-348 -8,-208 38,-416 125,-562 75,-124 247,-299 268,-271 7,9 90,231 184,493 94,261 178,474 188,473 10,-2 91,-105 182,-230 163,-226 165,-228 235,-200 153,61 132,354 -55,737 -118,245 -120,254 -89,377 36,143 169,474 411,1025 91,208 189,453 218,545 49,160 58,172 208,271l156 104 131 -299c121,-278 275,-870 234,-902 -8,-6 -155,83 -326,198 -172,115 -323,210 -334,212 -51,7 -115,-219 -133,-469 -35,-493 76,-793 369,-991 82,-56 305,-167 496,-246 433,-180 618,-279 612,-326 -2,-20 -44,-106 -92,-192 -109,-194 -120,-286 -57,-479 49,-148 52,-152 200,-213 404,-168 877,-61 1076,242 59,90 71,135 87,331 18,216 16,230 -50,306 -38,44 -113,98 -167,120 -107,45 -185,128 -176,189 2,21 49,119 104,217 54,97 96,182 91,188 -4,6 -138,-48 -296,-118l-288 -129 -353 166c-319,149 -353,171 -346,222 6,46 25,57 102,60 53,3 237,13 411,24 408,24 541,5 1135,-164 270,-76 509,-142 531,-144 33,-5 39,15 39,123 -1,200 -57,396 -141,492 -95,108 -241,171 -641,275 -491,127 -875,284 -1077,441 -52,40 -184,171 -292,292 -108,120 -223,239 -256,264 -37,29 -91,140 -145,297l-86 251 59 103c67,120 41,114 512,109 194,-3 366,4 382,13 17,10 115,161 219,335 148,249 185,328 168,363 -17,39 -75,53 -414,101 -280,40 -432,51 -531,37l0 0zm-2803 669c-31,-57 -18,-264 23,-380 69,-194 414,-605 856,-1019 113,-105 388,-315 420,-319 20,-2 37,54 53,178 22,167 19,186 -37,248 -33,38 -276,330 -539,650 -420,513 -492,588 -591,627 -145,56 -162,58 -185,15l0 0zm1518 146c-144,-112 -149,-173 -29,-367l96 -155 -113 -259 -112 -259 65 -213c79,-256 60,-273 334,297 295,611 300,779 27,954 -69,45 -133,82 -142,83 -10,1 -66,-35 -126,-81l0 0z"/>
  <path class="fil2" d="M6679 35568l-399 -975c154,-76 262,-162 324,-257 100,-154 117,-331 49,-532 -51,-150 -125,-253 -222,-310 -98,-58 -193,-71 -286,-39 -88,29 -154,94 -197,194 -44,100 -49,301 -16,603 53,494 26,868 -79,1122 -105,255 -289,428 -555,517 -174,59 -355,64 -544,16 -190,-49 -363,-160 -521,-333 -157,-173 -295,-436 -414,-790 -147,-434 -178,-791 -93,-1074 84,-282 296,-504 633,-666l392 966c-145,78 -239,172 -280,279 -42,108 -37,236 13,384 41,122 98,206 171,250 72,44 145,53 220,28 53,-18 93,-59 120,-124 28,-63 30,-194 6,-392 -56,-492 -66,-854 -32,-1086 34,-232 111,-419 230,-560 119,-141 271,-242 457,-305 217,-74 439,-81 663,-24 225,59 421,180 589,364 168,184 307,440 418,769 195,577 219,1015 72,1311 -147,298 -387,519 -719,664zm-3796 -4401l-111 -1457 2133 -720 -2217 -391 -111 -1450 3574 -272 69 903 -2725 207 2778 490 62 819 -2671 903 2724 -207 69 903 -3574 272zm-222 -6335l199 -1088 1332 244 -1122 -1386 266 -1448 1088 1529 2448 -942 -246 1340 -1584 478 486 674 858 157 -199 1088 -3526 -646zm2206 -8105l734 -1263 2165 613 -1606 -1577 731 -1258 3099 1800 -454 783 -2364 -1372 2012 1977 -412 710 -2713 -769 2363 1372 -455 784 -3100 -1800zm4965 -6922l761 -804 1550 1469c153,145 275,307 367,484 91,178 139,366 144,565 6,200 -24,374 -89,526 -90,211 -239,426 -446,645 -120,126 -260,256 -419,389 -160,133 -314,225 -462,275 -148,51 -309,73 -485,63 -176,-7 -330,-45 -462,-112 -212,-107 -382,-221 -510,-342l-1550 -1469 761 -803 1587 1504c141,134 289,200 443,197 154,-3 298,-74 430,-214 130,-137 193,-283 189,-436 -4,-152 -78,-297 -222,-434l-1587 -1503zm2548 -2242l929 -601 679 1051 1018 -657 -680 -1051 934 -603 1945 3010 -933 603 -788 -1219 -1018 658 788 1219 -929 600 -1945 -3010zm7979 -754l-1192 391 13 617 -1074 353 165 -3827 1152 -377 2393 2987 -1102 362 -355 -506zm-464 -664l-773 -1102 28 1346 745 -244zm2484 -3026l1450 -178 818 2097 288 -2232 1444 -177 436 3558 -900 110 -332 -2712 -362 2797 -814 99 -1025 -2627 332 2712 -899 110 -436 -3557zm6214 -364l1450 177 288 2232 819 -2096 1443 177 -436 3557 -899 -110 332 -2712 -1026 2627 -815 -100 -360 -2797 -332 2712 -899 -110 435 -3557zm7164 4796l-1169 -455 -382 486 -1054 -410 2556 -2852 1130 439 -47 3828 -1081 -421 47 -615zm63 -808l102 -1343 -833 1059 731 284zm3924 -473l1342 953c264,187 453,376 564,563 112,187 173,386 185,596 11,209 -23,420 -102,632 -78,212 -188,418 -330,617 -222,312 -429,529 -623,651 -193,121 -394,196 -603,222 -209,27 -399,8 -572,-56 -235,-87 -434,-188 -594,-302l-1343 -953 2076 -2923zm432 1302l-1133 1596 222 157c189,134 338,209 448,224 110,15 224,-14 343,-85 120,-73 263,-225 429,-460 220,-309 319,-556 299,-742 -20,-187 -147,-363 -382,-530l-226 -160zm3556 1834l807 764 -2466 2602 -806 -764 2465 -2602zm2074 2046l713 1001 -561 1291 1401 -113 710 996 -2504 76 -1223 871 -645 -905 1223 -871 886 -2346zm1007 7533l-514 -1145 -612 78 -463 -1031 3822 -237 497 1106 -2721 2693 -475 -1058 466 -406zm612 -531l1015 -885 -1336 169 321 716zm3247 2351l200 1088 -1231 226 218 1191 1231 -225 201 1093 -3526 646 -200 -1093 1428 -262 -219 -1191 -1428 262 -199 -1088 3525 -647zm493 10278l-3617 -443 122 -999 2367 290c-102,-176 -182,-345 -239,-505 -57,-161 -106,-360 -147,-596l805 98c68,350 167,628 296,832 131,205 302,374 514,507l-101 816zm-1845 3061l468 -833c257,172 425,388 503,652 77,262 49,585 -84,969 -153,441 -346,731 -580,871 -232,138 -474,165 -723,78 -146,-51 -264,-137 -355,-257 -90,-121 -152,-277 -186,-469 -77,120 -150,206 -217,260 -109,89 -230,143 -365,166 -135,23 -280,8 -437,-47 -197,-68 -369,-185 -514,-352 -145,-166 -233,-362 -263,-590 -30,-228 10,-500 120,-816 107,-307 227,-537 361,-689 135,-153 292,-262 471,-328 179,-66 386,-93 618,-81l-202 984c-203,-29 -355,-18 -455,34 -100,52 -172,137 -214,258 -44,126 -33,246 30,363 63,115 171,200 325,254 157,54 293,56 407,6 114,-50 195,-145 243,-282 26,-74 43,-182 51,-323l655 283c-26,48 -43,87 -54,116 -42,121 -38,237 12,345 50,109 128,182 235,219 103,36 196,34 278,-6 82,-40 142,-114 180,-220 38,-111 35,-211 -7,-304 -42,-91 -143,-178 -301,-261z"/>
  <path class="fil2" d="M14236 43393l873 688 -1206 1528c-253,321 -474,544 -664,666 -188,122 -415,174 -679,155 -264,-20 -531,-136 -799,-348 -285,-224 -474,-437 -570,-636 -96,-201 -128,-408 -96,-623 31,-215 125,-437 281,-666l918 542c-95,124 -157,224 -183,299 -28,77 -31,152 -11,228 14,51 52,100 114,148 97,77 197,98 300,62 102,-37 221,-140 356,-311l1366 -1732zm2769 5217l-1127 -552 -422 451 -1015 -497 2787 -2626 1089 533 -369 3810 -1042 -510 99 -609zm130 -800l215 -1329 -919 984 704 345zm3531 -907l1078 249 -305 1319 1436 -1058 1435 331 -1578 1018 830 2488 -1327 -306 -406 -1604 -695 454 -196 851 -1078 -249 806 -3493zm7119 3927l-1253 46 -159 597 -1130 41 1217 -3631 1212 -45 1474 3533 -1160 43 -201 -584zm-262 -767l-438 -1273 -346 1302 784 -29zm3649 1014l-820 -3490 1797 -422c333,-78 594,-109 784,-93 189,16 357,88 501,217 144,130 242,307 294,529 46,194 44,371 -6,531 -49,160 -136,301 -261,423 -78,76 -194,152 -346,227 139,13 242,33 311,62 45,19 118,67 215,143 97,76 164,137 201,182l761 885 -1218 286 -826 -929c-106,-121 -192,-195 -258,-223 -91,-35 -186,-41 -284,-18l-95 22 332 1413 -1082 255zm595 -2326l456 -107c49,-11 141,-50 275,-115 68,-31 118,-81 148,-151 32,-69 39,-142 21,-219 -27,-113 -83,-191 -168,-234 -86,-44 -227,-43 -425,4l-474 111 167 711zm3005 -2412l3079 -1367 359 810 -1034 459 1095 2466 -1011 449 -1095 -2466 -1034 459 -359 -810zm7424 -962l-996 763 216 578 -897 688 -1109 -3666 962 -737 3246 2028 -920 706 -502 -360zm-658 -474l-1094 -784 472 1261 622 -477z"/>
  <g id="_592547648">
   <polygon class="fil0" points="8459,38567 8789,39589 9863,39587 8993,40216 9327,41237 8459,40604 7592,41237 7926,40216 7056,39587 8130,39589 "/>
   <polygon class="fil0" points="45632,38567 45962,39589 47035,39587 46165,40216 46499,41237 45632,40604 44764,41237 45098,40216 44228,39587 45302,39589 "/>
  </g>
 </g>
</svg>
